<svg xmlns="http://www.w3.org/2000/svg" xmlns:xlink="http://www.w3.org/1999/xlink" version="1.1" x="0px" y="0px"
    viewBox="0 0 100 100" xml:space="preserve">
    <g enable-background="new    ">
        <g>
            <g>
                <path fill="#dcf11e" fill-rule="evenodd" clip-rule="evenodd"
                    d="M67,48c-7,0-9,4-9,4s-1,3,1,4c0,0-3,1-6,5c0,0-1-10-1-19s2-25,14-33c0,0-9,8-10,21c0,0,7,2,11-3s3-13,3-13s-1-6,1-9     c0,0-10-1-18,4s-7,11-7,11s0,5,5,9c0,0-2,11-2,28c0,0-13-17-31-17c0,0,12-3,27,6c0,0-1-14-17-14c-12,0-14,5-23,8c0,0,4,2,8,9     s8,11,14,11s11-4,13-8c0,0,9,6,9,15v7h4v-7c0,0,1-5,7-9s16-1,16-1s-11-1-15,4c0,0,2,5,8,5c5,0,9-5,9-5s3-3,5-2C83,59,78,48,67,48     z" />
            </g>
        </g>
    </g>
    <g enable-background="new    ">
        <g>
            <g>
                <path fill="#442604" fill-rule="evenodd" clip-rule="evenodd"
                    d="M86.5,84c-2.179,0-4.159,0.826-5.664,2.175C79.965,80.971,75.452,77,70,77     c-3.275,0-6.207,1.439-8.223,3.71C59.357,78.416,56.098,77,52.5,77c-5.324,0-9.915,3.09-12.112,7.566     C38.605,81.82,35.518,80,32,80c-4.009,0-7.457,2.364-9.051,5.77C21.785,84.676,20.223,84,18.5,84     c-2.734,0-5.069,1.689-6.029,4.08C12.153,88.032,11.831,88,11.5,88C7.91,88,5,90.91,5,94.5c0,0.169,0.013,0.334,0.025,0.5h18.146     c0.036-0.037,0.076-0.071,0.111-0.109c0.021,0.038,0.049,0.071,0.071,0.109h71.271C94.868,94.209,95,93.37,95,92.5     C95,87.806,91.194,84,86.5,84z" />
            </g>
        </g>
    </g>
</svg>